<svg width="258" height="100" viewBox="0 0 258 100" fill="none" xmlns="http://www.w3.org/2000/svg">
<path d="M3.32913 31.9432C5.50521 32.3138 7.56977 30.8516 7.943 28.6766L7.94339 28.6744L7.94716 28.6538C7.95228 28.6259 7.96154 28.5765 7.97526 28.5072C8.00273 28.3684 8.04799 28.1501 8.11375 27.8637C8.24547 27.2899 8.45812 26.4484 8.77255 25.4294C9.40593 23.3769 10.429 20.6804 11.9857 18.0202C15.0965 12.7039 19.9976 8 28.0006 8C36.3308 8 42.7713 12.9569 50.5063 19.127L50.9186 19.456C54.9633 22.6843 59.4088 26.2324 64.5349 28.7288C68.5589 30.6884 73.0023 32 78.0006 32C82.9769 32 87.4032 30.7 91.4131 28.7547C96.5618 26.257 101.024 22.6955 105.083 19.456L105.495 19.127C113.23 12.9569 119.67 8 128.001 8C136.331 8 142.771 12.9569 150.506 19.127L150.919 19.456C155.016 22.7261 159.524 26.3244 164.734 28.8253C168.706 30.7314 173.085 32 178.001 32C182.895 32 187.257 30.7427 191.214 28.8507C196.447 26.3488 200.972 22.7372 205.083 19.456L205.495 19.127C213.23 12.9569 219.67 8 228.001 8C236.065 8 241.364 12.7752 244.861 18.1744C246.601 20.8614 247.801 23.5791 248.566 25.6416C248.947 26.6664 249.213 27.5127 249.382 28.0901C249.466 28.3784 249.526 28.5984 249.562 28.7386C249.58 28.8087 249.593 28.8588 249.6 28.8873L249.605 28.9069L249.606 28.9112L249.606 28.9129L249.607 28.9144C250.111 31.0616 252.258 32.3961 254.408 31.8958C256.559 31.3949 257.897 29.2447 257.396 27.0931L253.501 28C257.396 27.0931 257.396 27.0915 257.396 27.0898L257.395 27.086L257.393 27.0766L257.387 27.0514L257.368 26.975C257.353 26.9127 257.331 26.828 257.304 26.7223C257.249 26.511 257.169 26.2153 257.061 25.8474C256.847 25.1123 256.521 24.0836 256.067 22.8584C255.162 20.4209 253.721 17.1386 251.575 13.8256C247.3 7.22482 239.849 0 228.001 0C216.635 0 208.138 6.78156 200.919 12.544L200.506 12.873C192.771 19.0431 186.331 24 178.001 24C169.67 24 163.23 19.0431 155.495 12.873L155.083 12.544C147.863 6.78156 139.366 0 128.001 0C116.635 0 108.138 6.78155 100.919 12.544L100.506 12.873C92.7713 19.0431 86.3308 24 78.0006 24C69.6705 24 63.23 19.0431 55.495 12.873L55.0827 12.544C47.8629 6.78155 39.3663 0 28.0006 0C16.0907 0 8.99188 7.29611 5.08091 13.9798C3.12668 17.3196 1.88346 20.6231 1.12823 23.0706C0.748354 24.3016 0.486131 25.3351 0.316556 26.0738C0.23166 26.4436 0.169667 26.7409 0.127542 26.9537C0.106471 27.0602 0.0903452 27.1456 0.0787877 27.2085L0.0648218 27.2859L0.0603148 27.3116L0.0586647 27.3212L0.0579883 27.3251C0.0576912 27.3268 0.0574105 27.3285 4.00064 28L0.0574103 27.3285C-0.313457 29.5063 1.15134 31.5724 3.32913 31.9432Z" fill="#7AD9F8"/>
<path d="M7.94299 62.6767C7.56977 64.8516 5.50521 66.3138 3.32913 65.9432C1.15134 65.5724 -0.313457 63.5063 0.0574103 61.3285L4.00064 62C0.0574105 61.3285 0.0576912 61.3268 0.0579883 61.3251L0.0586647 61.3212L0.0603148 61.3116L0.0648218 61.2859L0.0787877 61.2085C0.0903452 61.1456 0.106471 61.0602 0.127542 60.9537C0.169667 60.7409 0.23166 60.4436 0.316556 60.0738C0.486131 59.3351 0.748354 58.3016 1.12823 57.0706C1.88346 54.6231 3.12668 51.3196 5.08091 47.9798C8.99188 41.2961 16.0907 34 28.0006 34C39.3663 34 47.8629 40.7816 55.0827 46.544L55.495 46.873C63.23 53.0431 69.6705 58 78.0006 58C86.3308 58 92.7713 53.0431 100.506 46.873L100.919 46.544C108.138 40.7816 116.635 34 128.001 34C139.366 34 147.863 40.7816 155.083 46.544L155.495 46.873C163.23 53.0431 169.67 58 178.001 58C186.331 58 192.771 53.0431 200.506 46.873L200.919 46.544C208.138 40.7816 216.635 34 228.001 34C239.849 34 247.3 41.2248 251.575 47.8256C253.721 51.1386 255.162 54.4209 256.067 56.8584C256.521 58.0836 256.847 59.1123 257.061 59.8474C257.169 60.2153 257.249 60.511 257.304 60.7223C257.331 60.828 257.353 60.9127 257.368 60.975L257.387 61.0514L257.393 61.0766L257.395 61.086L257.396 61.0898C257.396 61.0915 257.396 61.0931 253.501 62L257.396 61.0931C257.897 63.2447 256.559 65.3949 254.408 65.8958C252.258 66.3961 250.111 65.0616 249.607 62.9144L249.606 62.9129L249.606 62.9112L249.605 62.9069L249.6 62.8873C249.593 62.8588 249.58 62.8087 249.562 62.7386C249.526 62.5984 249.466 62.3784 249.382 62.0901C249.213 61.5127 248.947 60.6664 248.566 59.6416C247.801 57.5791 246.601 54.8614 244.861 52.1744C241.364 46.7752 236.065 42 228.001 42C219.67 42 213.23 46.9569 205.495 53.127L205.083 53.456C200.972 56.7372 196.447 60.3489 191.214 62.8507C187.257 64.7427 182.895 66 178.001 66C173.085 66 168.706 64.7314 164.734 62.8252C159.524 60.3244 155.016 56.7261 150.919 53.456L150.506 53.127C142.771 46.9569 136.331 42 128.001 42C119.67 42 113.23 46.9569 105.495 53.127L105.083 53.456C101.024 56.6955 96.5618 60.257 91.4131 62.7547C87.4032 64.7 82.9769 66 78.0006 66C73.0023 66 68.5589 64.6885 64.5349 62.7288C59.4088 60.2324 54.9633 56.6843 50.9186 53.456L50.5063 53.127C42.7713 46.9569 36.3308 42 28.0006 42C19.9976 42 15.0965 46.7039 11.9857 52.0202C10.429 54.6804 9.40593 57.3769 8.77255 59.4294C8.45812 60.4484 8.24547 61.2899 8.11375 61.8637C8.04799 62.1501 8.00273 62.3684 7.97526 62.5072C7.96154 62.5765 7.95228 62.6259 7.94716 62.6538L7.94339 62.6744L7.94299 62.6767Z" fill="#7AD9F8"/>
<path d="M7.94339 96.6743L7.94321 96.6754C7.57056 98.851 5.50563 100.314 3.32913 99.9432C1.15134 99.5724 -0.313457 97.5063 0.0574103 95.3285L4.00064 96C0.0574105 95.3285 0.0576912 95.3268 0.0579883 95.3251L0.0586647 95.3212L0.0603148 95.3116L0.0648218 95.2859L0.0787877 95.2085C0.0903452 95.1456 0.106471 95.0602 0.127542 94.9537C0.169667 94.7409 0.23166 94.4436 0.316556 94.0738C0.486131 93.3351 0.748354 92.3016 1.12823 91.0706C1.88346 88.6231 3.12668 85.3196 5.08091 81.9798C8.99188 75.2961 16.0907 68 28.0006 68C39.3663 68 47.8629 74.7816 55.0827 80.544L55.495 80.873C63.23 87.0431 69.6705 92 78.0006 92C86.3308 92 92.7713 87.0431 100.506 80.873L100.919 80.544C108.138 74.7816 116.635 68 128.001 68C139.366 68 147.863 74.7816 155.083 80.544L155.495 80.873C163.23 87.0431 169.67 92 178.001 92C186.331 92 192.771 87.0431 200.506 80.873L200.919 80.544C208.138 74.7816 216.635 68 228.001 68C239.849 68 247.3 75.2248 251.575 81.8256C253.721 85.1386 255.162 88.4209 256.067 90.8584C256.521 92.0836 256.847 93.1123 257.061 93.8474C257.169 94.2153 257.249 94.511 257.304 94.7223C257.331 94.828 257.353 94.9127 257.368 94.975L257.387 95.0514L257.393 95.0766L257.395 95.086L257.396 95.0898C257.396 95.0915 257.396 95.0931 253.501 96L257.396 95.0931C257.897 97.2447 256.559 99.3949 254.408 99.8958C252.258 100.396 250.111 99.0616 249.607 96.9144L249.606 96.9129L249.606 96.9112L249.605 96.9069L249.6 96.8873C249.597 96.8744 249.592 96.8571 249.587 96.8355C249.58 96.8094 249.572 96.777 249.562 96.7386C249.526 96.5984 249.466 96.3784 249.382 96.0901C249.213 95.5127 248.947 94.6664 248.566 93.6416C247.801 91.5791 246.601 88.8614 244.861 86.1744C241.364 80.7752 236.065 76 228.001 76C219.67 76 213.23 80.9569 205.495 87.127L205.083 87.456C200.972 90.7372 196.447 94.3489 191.214 96.8507C187.257 98.7427 182.895 100 178.001 100C173.085 100 168.706 98.7314 164.734 96.8252C159.524 94.3244 155.016 90.7261 150.919 87.456L150.506 87.127C142.771 80.9569 136.331 76 128.001 76C119.67 76 113.23 80.9569 105.495 87.127L105.083 87.456C101.024 90.6955 96.5618 94.257 91.4131 96.7547C87.4032 98.7 82.9769 100 78.0006 100C73.0023 100 68.5589 98.6885 64.5349 96.7288C59.4088 94.2324 54.9634 90.6843 50.9187 87.4561L50.5063 87.127C42.7713 80.9569 36.3308 76 28.0006 76C19.9976 76 15.0965 80.7039 11.9857 86.0202C10.429 88.6804 9.40593 91.3769 8.77255 93.4294C8.45812 94.4484 8.24547 95.2899 8.11375 95.8637C8.04799 96.1501 8.00273 96.3684 7.97526 96.5072C7.96154 96.5765 7.95228 96.6259 7.94716 96.6538L7.94339 96.6743Z" fill="#7AD9F8"/>
</svg>
