<svg width="102" height="291" viewBox="0 0 102 291" fill="none" xmlns="http://www.w3.org/2000/svg">
<path fill-rule="evenodd" clip-rule="evenodd" d="M1.11803 212.765L-3.2784e-06 215.001L1.11803 217.237L36.118 287.237C37.353 289.707 40.3563 290.708 42.8262 289.473C45.2961 288.238 46.2973 285.235 45.0623 282.765L11.1803 215.001L45.0623 147.237L46.1803 145.001L45.0623 142.765L11.1803 75.0011L45.0623 7.23715C46.2972 4.76727 45.2961 1.76391 42.8262 0.528959C40.3563 -0.705995 37.353 0.295134 36.118 2.76504L1.11802 72.765L-9.398e-06 75.0011L1.11802 77.2372L35 145.001L1.11803 212.765ZM56.118 212.765L55 215.001L56.118 217.237L91.118 287.237C92.353 289.707 95.3563 290.708 97.8262 289.473C100.296 288.238 101.297 285.235 100.062 282.765L66.1803 215.001L100.062 147.237L101.18 145.001L100.062 142.765L66.1803 75.0011L100.062 7.23715C101.297 4.76727 100.296 1.76391 97.8262 0.528957C95.3563 -0.705998 92.353 0.295131 91.118 2.76504L56.118 72.765L55 75.0011L56.118 77.2372L90 145.001L56.118 212.765Z" fill="#7AD9F8"/>
</svg>
